<svg width="132" height="37" viewBox="0 0 132 37" fill="none" xmlns="http://www.w3.org/2000/svg">
<path d="M31.145 10.2768V35.1926H25.2178V10.2768H31.145Z" fill="black"/>
<path d="M28.2059 7.53606C27.1609 7.53606 26.2792 7.18724 25.5607 6.4896C24.8749 5.75874 24.532 4.86177 24.532 3.79869C24.532 2.73561 24.8749 1.85526 25.5607 1.15761C26.2792 0.426749 27.1609 0.0613174 28.2059 0.0613174C29.2509 0.0613174 30.1163 0.426749 30.8021 1.15761C31.5206 1.85526 31.8798 2.73561 31.8798 3.79869C31.8798 4.86177 31.5206 5.75874 30.8021 6.4896C30.1163 7.18724 29.2509 7.53606 28.2059 7.53606Z" fill="black"/>
<path d="M20.1306 33.9468C18.2365 35.2757 16.1302 35.9401 13.8115 35.9401C11.3949 35.9401 9.4518 35.2591 7.98224 33.897C6.51269 32.5349 5.7779 30.6247 5.7779 28.1664V15.6088H1.07532V10.2768H5.7779V4.54617H11.7051V10.2768H19.1019V15.6088H11.7051V27.6183C11.7051 28.5484 11.9337 29.2626 12.391 29.761C12.8807 30.2593 13.5993 30.5084 14.5463 30.5084C15.8199 30.5084 17.1098 29.9935 18.4161 28.9637L20.1306 33.9468Z" fill="black"/>
<path d="M72.2 12.1704C70.5672 10.4097 68.3302 9.52933 65.489 9.52933C63.9215 9.52933 62.5009 9.84493 61.2273 10.4761C59.9537 11.0741 58.8761 11.9545 57.9942 13.1172C57.2432 11.9877 56.2798 11.1073 55.1041 10.4761C53.9611 9.84493 52.6549 9.52933 51.1853 9.52933C49.8137 9.52933 48.5401 9.8117 47.3644 10.3765C46.2214 10.908 45.2254 11.672 44.3764 12.6687V10.2768H38.6451V35.1926H44.5723V21.1899C44.5723 19.396 45.0295 17.9508 45.9439 16.8546C46.8583 15.7251 48.0502 15.1604 49.5198 15.1604C50.8587 15.1604 51.8874 15.6254 52.6059 16.5556C53.3244 17.4858 53.6836 18.8146 53.6836 20.5422V35.1926H59.6107V21.1899C59.6107 19.3628 60.0516 17.901 60.9333 16.8047C61.8477 15.7084 63.0561 15.1604 64.5583 15.1604C65.8972 15.1604 66.9259 15.6254 67.6444 16.5556C68.3628 17.4858 68.722 18.8146 68.722 20.5422V35.1926H74.6982V19.3462C74.6982 16.3231 73.8655 13.9312 72.2 12.1704Z" fill="black"/>
<path d="M89.5499 35.9401C86.6436 35.9401 84.2269 35.2923 82.3002 33.9967C80.4061 32.6679 79.1977 30.9071 78.6753 28.7145L83.7207 27.0202C84.0799 28.2494 84.7658 29.2294 85.7781 29.9604C86.7905 30.6912 88.0967 31.0566 89.6969 31.0566C91.0359 31.0566 92.0482 30.824 92.7341 30.3589C93.4525 29.8939 93.8117 29.2294 93.8117 28.3657C93.8117 27.4355 93.4198 26.7545 92.636 26.3226C91.8523 25.8575 90.4317 25.3591 88.3743 24.8277C85.5985 24.1301 83.4268 23.2164 81.8593 22.0869C80.3244 20.9242 79.557 19.1634 79.557 16.8047C79.557 14.6122 80.4388 12.8514 82.2022 11.5226C83.9657 10.1937 86.3169 9.52933 89.256 9.52933C91.9012 9.52933 94.1219 10.1107 95.9181 11.2735C97.7142 12.4361 98.8898 14.0141 99.445 16.0074L93.9586 17.8014C93.6321 16.7384 93.028 15.9244 92.1462 15.3596C91.2971 14.7617 90.2521 14.4626 89.0111 14.4626C86.4966 14.4626 85.2393 15.2766 85.2393 16.9044C85.2393 17.6685 85.6311 18.2499 86.4149 18.6486C87.1986 19.014 88.505 19.4459 90.3337 19.9441C92.2278 20.4092 93.828 20.9076 95.1343 21.4391C96.4406 21.9374 97.5672 22.7513 98.5143 23.8808C99.4613 24.9771 99.9348 26.4389 99.9348 28.266C99.9348 29.761 99.4939 31.0899 98.6122 32.2526C97.7632 33.4153 96.5385 34.3288 94.9384 34.9933C93.3708 35.6245 91.5747 35.9401 89.5499 35.9401Z" fill="black"/>
<path fill-rule="evenodd" clip-rule="evenodd" d="M109.558 34.2459C111.582 35.3754 113.852 35.9401 116.366 35.9401C118.881 35.9401 121.151 35.3754 123.175 34.2459C125.233 33.083 126.833 31.5051 127.976 29.5119C129.12 27.4853 129.691 25.2263 129.691 22.7347C129.691 20.2431 129.12 18.0007 127.976 16.0074C126.833 13.981 125.233 12.403 123.175 11.2735C121.151 10.1107 118.881 9.52933 116.366 9.52933C113.852 9.52933 111.582 10.1107 109.558 11.2735C107.533 12.403 105.949 13.981 104.806 16.0074C103.663 18.0007 103.092 20.2431 103.092 22.7347C103.092 25.2263 103.663 27.4853 104.806 29.5119C105.949 31.5051 107.533 33.083 109.558 34.2459ZM116.579 26.2887C118.472 26.2887 120.007 24.7274 120.007 22.8016C120.007 20.8757 118.472 19.3144 116.579 19.3144C114.685 19.3144 113.151 20.8757 113.151 22.8016C113.151 24.7274 114.685 26.2887 116.579 26.2887Z" fill="black"/>
</svg>
