<svg width="154" height="120" viewBox="0 0 154 120" fill="none" xmlns="http://www.w3.org/2000/svg">
<g clip-path="url(#clip0_1_359)">
<path d="M143.538 1.33691H10.5421C5.4297 1.33691 1.28528 5.49877 1.28528 10.6327V109.698C1.28528 114.832 5.4297 118.994 10.5421 118.994H143.538C148.651 118.994 152.795 114.832 152.795 109.698V10.6327C152.795 5.49877 148.651 1.33691 143.538 1.33691Z" fill="white" stroke="black" stroke-width="2"/>
<path d="M132.9 15.7097H21.9751C18.7218 15.7097 16.0844 18.3582 16.0844 21.6252V98.3948C16.0844 101.662 18.7218 104.31 21.9751 104.31H132.9C136.153 104.31 138.79 101.662 138.79 98.3948V21.6252C138.79 18.3582 136.153 15.7097 132.9 15.7097Z" fill="white" stroke="black" stroke-width="2"/>
<path d="M92.3426 57.9766H64.6827C62.3589 57.9766 60.4751 59.8683 60.4751 62.2019V63.7864C60.4751 66.12 62.3589 68.0118 64.6827 68.0118H92.3426C94.6664 68.0118 96.5502 66.12 96.5502 63.7864V62.2019C96.5502 59.8683 94.6664 57.9766 92.3426 57.9766Z" fill="#EDEEEA"/>
<path d="M92.3426 74.0791H64.6827C62.3589 74.0791 60.4751 75.9709 60.4751 78.3045V79.889C60.4751 82.2226 62.3589 84.1143 64.6827 84.1143H92.3426C94.6664 84.1143 96.5502 82.2226 96.5502 79.889V78.3045C96.5502 75.9709 94.6664 74.0791 92.3426 74.0791Z" fill="#EDEEEA"/>
<path d="M92.343 36.7605H64.6827C62.3589 36.7605 60.4751 38.6523 60.4751 40.9859V48.1657C60.4751 50.4993 62.3589 52.391 64.6827 52.391H92.343C94.6668 52.391 96.5507 50.4993 96.5507 48.1657V40.9859C96.5507 38.6523 94.6668 36.7605 92.343 36.7605Z" fill="#CAFF34"/>
<path d="M18.2931 30.9884C18.2931 29.6039 17.1754 28.4814 15.7966 28.4814C14.4178 28.4814 13.3001 29.6039 13.3001 30.9884V42.5345C13.3001 43.919 14.4178 45.0414 15.7966 45.0414C17.1754 45.0414 18.2931 43.919 18.2931 42.5345V30.9884Z" fill="white" stroke="black" stroke-width="2"/>
<path d="M18.2931 77.55C18.2931 76.1654 17.1754 75.043 15.7966 75.043C14.4178 75.043 13.3001 76.1654 13.3001 77.55V89.096C13.3001 90.4805 14.4178 91.603 15.7966 91.603C17.1754 91.603 18.2931 90.4805 18.2931 89.096V77.55Z" fill="white" stroke="black" stroke-width="2"/>
</g>
<defs>
<clipPath id="clip0_1_359">
<rect width="154" height="120" fill="white"/>
</clipPath>
</defs>
</svg>
